<svg xmlns="http://www.w3.org/2000/svg" viewBox="0 0 120 120" fill="none">
  <circle cx="60" cy="60" r="60" fill="url(#bg-f)"/>
  <!-- Cheveux longs -->
  <ellipse cx="60" cy="42" rx="32" ry="28" fill="#6B3A2A"/>
  <ellipse cx="38" cy="60" rx="10" ry="22" fill="#6B3A2A"/>
  <ellipse cx="82" cy="60" rx="10" ry="22" fill="#6B3A2A"/>
  <!-- Visage -->
  <ellipse cx="60" cy="58" rx="24" ry="26" fill="#FFDBB4"/>
  <!-- Yeux joyeux (arcs) -->
  <path d="M45 55 Q50 50 55 55" stroke="#3D3D3D" stroke-width="2.8" stroke-linecap="round" fill="none"/>
  <path d="M65 55 Q70 50 75 55" stroke="#3D3D3D" stroke-width="2.8" stroke-linecap="round" fill="none"/>
  <!-- Petits cils -->
  <path d="M44 52.5 Q46 50.5 48 52" stroke="#3D3D3D" stroke-width="1.3" stroke-linecap="round" fill="none"/>
  <path d="M72 52 Q74 50.5 76 52.5" stroke="#3D3D3D" stroke-width="1.3" stroke-linecap="round" fill="none"/>
  <!-- Grand sourire ouvert -->
  <path d="M46 67 Q60 82 74 67" stroke="#3D3D3D" stroke-width="2.5" stroke-linecap="round" fill="none"/>
  <!-- T-shirt -->
  <path d="M30 95 Q32 82 60 80 Q88 82 90 95 L90 120 L30 120 Z" fill="url(#ts-f)"/>
  <!-- Petites etoiles -->
  <circle cx="92" cy="18" r="3" fill="#FFD700" opacity="0.8"/>
  <circle cx="22" cy="22" r="2.5" fill="#FF80AB" opacity="0.6"/>
  <circle cx="95" cy="40" r="2" fill="#FF80AB" opacity="0.5"/>
  <defs>
    <linearGradient id="bg-f" x1="0" y1="0" x2="120" y2="120">
      <stop offset="0%" stop-color="#FDE8F0"/>
      <stop offset="100%" stop-color="#F5D0DE"/>
    </linearGradient>
    <linearGradient id="ts-f" x1="30" y1="80" x2="90" y2="120">
      <stop offset="0%" stop-color="#FF6584"/>
      <stop offset="100%" stop-color="#6C63FF"/>
    </linearGradient>
  </defs>
</svg>
