<svg xmlns="http://www.w3.org/2000/svg" viewBox="0 0 512 512">
  <defs>
    <linearGradient id="wg" x1="0%" y1="0%" x2="100%" y2="100%">
      <stop offset="0%" stop-color="#F97316"/>
      <stop offset="50%" stop-color="#EF4444"/>
      <stop offset="100%" stop-color="#EC4899"/>
    </linearGradient>
  </defs>
  <!-- Rounded square background -->
  <rect width="512" height="512" rx="108" ry="108" fill="white"/>
  <!-- W in brush script style -->
  <path d="
    M 80 140
    Q 85 135, 95 140
    L 155 340
    Q 160 358, 168 340
    L 225 190
    Q 232 170, 240 190
    L 295 340
    Q 303 358, 310 340
    L 380 140
    Q 388 120, 400 140
    Q 405 150, 398 165
    L 318 375
    Q 308 400, 295 375
    L 240 230
    Q 232 210, 225 230
    L 168 375
    Q 155 400, 143 375
    L 60 165
    Q 50 145, 60 135
    Z
  " fill="url(#wg)"/>
  <!-- Swoosh underline -->
  <path d="
    M 120 390
    Q 260 420, 420 370
  " stroke="url(#wg)" stroke-width="14" stroke-linecap="round" fill="none"/>
</svg>
